<svg width="41" height="41" viewBox="0 0 41 41" fill="none" xmlns="http://www.w3.org/2000/svg">
  <circle cx="20.5" cy="20.8098" r="19.5" fill="white" stroke="#E9E9E9"></circle>
  <path d="M25.7806 13.9431C24.9959 13.0761 24.5634 11.9625 24.5638 10.8098H21.0166V24.5876C20.9892 25.3332 20.664 26.0394 20.1094 26.5575C19.5548 27.0757 18.8142 27.3653 18.0434 27.3654C16.4133 27.3654 15.0587 26.0765 15.0587 24.4765C15.0587 22.5654 16.9643 21.132 18.9273 21.7209V18.2098C14.9668 17.6987 11.5 20.6765 11.5 24.4765C11.5 28.1765 14.6684 30.8098 18.0319 30.8098C21.6365 30.8098 24.5638 27.9765 24.5638 24.4765V17.4876C26.0022 18.4874 27.7291 19.0239 29.5 19.0209V15.5876C29.5 15.5876 27.3418 15.6876 25.7806 13.9431Z" fill="black"></path>
</svg>